HIERARCHY
ROOT mixamorig:Hips
{
	OFFSET -0.000008 104.274872 1.554316
	CHANNELS 6 Xposition Yposition Zposition Xrotation Yrotation Zrotation
	JOINT mixamorig:Spine
	{
		OFFSET -0.000005 10.181595 0.131519
		CHANNELS 6 Xposition Yposition Zposition Xrotation Yrotation Zrotation
		JOINT mixamorig:Spine1
		{
			OFFSET -0.000000 9.893959 -1.470707
			CHANNELS 6 Xposition Yposition Zposition Xrotation Yrotation Zrotation
			JOINT mixamorig:Spine2
			{
				OFFSET -0.000000 9.220757 -1.370641
				CHANNELS 6 Xposition Yposition Zposition Xrotation Yrotation Zrotation
				JOINT mixamorig:Neck
				{
					OFFSET 0.000001 16.740417 -2.049036
					CHANNELS 6 Xposition Yposition Zposition Xrotation Yrotation Zrotation
					JOINT mixamorig:Head
					{
						OFFSET 0.000000 9.617874 1.685006
						CHANNELS 6 Xposition Yposition Zposition Xrotation Yrotation Zrotation
						JOINT mixamorig:HeadTop_End
						{
							OFFSET 0.000002 22.037354 7.501101
							CHANNELS 6 Xposition Yposition Zposition Xrotation Yrotation Zrotation
							End Site
							{
								OFFSET 0.000168 2310.654297 -282.823242
							}
						}
					}
				}
				JOINT mixamorig:RightShoulder
				{
					OFFSET -4.569970 11.014908 -2.160885
					CHANNELS 6 Xposition Yposition Zposition Xrotation Yrotation Zrotation
					JOINT mixamorig:RightArm
					{
						OFFSET -10.592851 -0.524811 -2.232101
						CHANNELS 6 Xposition Yposition Zposition Xrotation Yrotation Zrotation
						JOINT mixamorig:RightForeArm
						{
							OFFSET -27.841511 0.000031 -0.000004
							CHANNELS 6 Xposition Yposition Zposition Xrotation Yrotation Zrotation
							JOINT mixamorig:RightHand
							{
								OFFSET -28.328831 -0.000015 0.000015
								CHANNELS 6 Xposition Yposition Zposition Xrotation Yrotation Zrotation
								JOINT mixamorig:RightHandThumb1
								{
									OFFSET -2.464806 -1.573990 2.681852
									CHANNELS 6 Xposition Yposition Zposition Xrotation Yrotation Zrotation
									JOINT mixamorig:RightHandThumb2
									{
										OFFSET -3.215179 -1.872803 1.924282
										CHANNELS 6 Xposition Yposition Zposition Xrotation Yrotation Zrotation
										JOINT mixamorig:RightHandThumb3
										{
											OFFSET -2.654831 -1.527969 1.512609
											CHANNELS 6 Xposition Yposition Zposition Xrotation Yrotation Zrotation
											JOINT mixamorig:RightHandThumb4
											{
												OFFSET -2.018814 -1.152008 1.108052
												CHANNELS 6 Xposition Yposition Zposition Xrotation Yrotation Zrotation
												End Site
												{
													OFFSET -188.809540 -114.533607 132.431396
												}
											}
										}
									}
								}
								JOINT mixamorig:RightHandIndex1
								{
									OFFSET -9.108284 -0.517868 2.259835
									CHANNELS 6 Xposition Yposition Zposition Xrotation Yrotation Zrotation
									JOINT mixamorig:RightHandIndex2
									{
										OFFSET -3.699989 0.000000 0.001215
										CHANNELS 6 Xposition Yposition Zposition Xrotation Yrotation Zrotation
										JOINT mixamorig:RightHandIndex3
										{
											OFFSET -2.850006 0.000031 -0.000522
											CHANNELS 6 Xposition Yposition Zposition Xrotation Yrotation Zrotation
											JOINT mixamorig:RightHandIndex4
											{
												OFFSET -2.772186 -0.000015 -0.000020
												CHANNELS 6 Xposition Yposition Zposition Xrotation Yrotation Zrotation
												End Site
												{
													OFFSET -277.218445 0.000000 -0.050231
												}
											}
										}
									}
								}
								JOINT mixamorig:RightHandMiddle1
								{
									OFFSET -9.532516 -0.000031 -0.000023
									CHANNELS 6 Xposition Yposition Zposition Xrotation Yrotation Zrotation
									JOINT mixamorig:RightHandMiddle2
									{
										OFFSET -3.700005 -0.000015 0.003713
										CHANNELS 6 Xposition Yposition Zposition Xrotation Yrotation Zrotation
										JOINT mixamorig:RightHandMiddle3
										{
											OFFSET -2.949974 0.000015 -0.002054
											CHANNELS 6 Xposition Yposition Zposition Xrotation Yrotation Zrotation
											JOINT mixamorig:RightHandMiddle4
											{
												OFFSET -2.946640 0.000000 -0.000156
												CHANNELS 6 Xposition Yposition Zposition Xrotation Yrotation Zrotation
												End Site
												{
													OFFSET -294.664337 0.000000 -0.113670
												}
											}
										}
									}
								}
								JOINT mixamorig:RightHandRing1
								{
									OFFSET -9.103600 -0.043076 -1.865134
									CHANNELS 6 Xposition Yposition Zposition Xrotation Yrotation Zrotation
									JOINT mixamorig:RightHandRing2
									{
										OFFSET -3.379288 0.000000 -0.001055
										CHANNELS 6 Xposition Yposition Zposition Xrotation Yrotation Zrotation
										JOINT mixamorig:RightHandRing3
										{
											OFFSET -2.889687 -0.000015 0.000379
											CHANNELS 6 Xposition Yposition Zposition Xrotation Yrotation Zrotation
											JOINT mixamorig:RightHandRing4
											{
												OFFSET -2.638809 -0.000015 0.000941
												CHANNELS 6 Xposition Yposition Zposition Xrotation Yrotation Zrotation
												End Site
												{
													OFFSET -263.880371 0.000000 0.516020
												}
											}
										}
									}
								}
								JOINT mixamorig:RightHandPinky1
								{
									OFFSET -8.076683 -0.486710 -3.806280
									CHANNELS 6 Xposition Yposition Zposition Xrotation Yrotation Zrotation
									JOINT mixamorig:RightHandPinky2
									{
										OFFSET -3.600014 -0.000015 -0.003747
										CHANNELS 6 Xposition Yposition Zposition Xrotation Yrotation Zrotation
										JOINT mixamorig:RightHandPinky3
										{
											OFFSET -2.099983 0.000000 -0.005739
											CHANNELS 6 Xposition Yposition Zposition Xrotation Yrotation Zrotation
											JOINT mixamorig:RightHandPinky4
											{
												OFFSET -2.115768 -0.000031 -0.003680
												CHANNELS 6 Xposition Yposition Zposition Xrotation Yrotation Zrotation
												End Site
												{
													OFFSET -211.577087 0.000000 -0.350686
												}
											}
										}
									}
								}
							}
						}
					}
				}
				JOINT mixamorig:LeftShoulder
				{
					OFFSET 4.570447 11.014725 -2.160855
					CHANNELS 6 Xposition Yposition Zposition Xrotation Yrotation Zrotation
					JOINT mixamorig:LeftArm
					{
						OFFSET 10.592371 -0.524597 -2.232119
						CHANNELS 6 Xposition Yposition Zposition Xrotation Yrotation Zrotation
						JOINT mixamorig:LeftForeArm
						{
							OFFSET 27.841532 -0.000031 0.000026
							CHANNELS 6 Xposition Yposition Zposition Xrotation Yrotation Zrotation
							JOINT mixamorig:LeftHand
							{
								OFFSET 28.328846 -0.000061 0.000022
								CHANNELS 6 Xposition Yposition Zposition Xrotation Yrotation Zrotation
								JOINT mixamorig:LeftHandThumb1
								{
									OFFSET 2.466141 -1.576172 2.681732
									CHANNELS 6 Xposition Yposition Zposition Xrotation Yrotation Zrotation
									JOINT mixamorig:LeftHandThumb2
									{
										OFFSET 3.217812 -1.872070 1.916482
										CHANNELS 6 Xposition Yposition Zposition Xrotation Yrotation Zrotation
										JOINT mixamorig:LeftHandThumb3
										{
											OFFSET 2.656029 -1.528778 1.514513
											CHANNELS 6 Xposition Yposition Zposition Xrotation Yrotation Zrotation
											JOINT mixamorig:LeftHandThumb4
											{
												OFFSET 2.020889 -1.154053 1.115139
												CHANNELS 6 Xposition Yposition Zposition Xrotation Yrotation Zrotation
												End Site
												{
													OFFSET 190.885437 -115.081749 130.048782
												}
											}
										}
									}
								}
								JOINT mixamorig:LeftHandIndex1
								{
									OFFSET 9.109314 -0.518021 2.259871
									CHANNELS 6 Xposition Yposition Zposition Xrotation Yrotation Zrotation
									JOINT mixamorig:LeftHandIndex2
									{
										OFFSET 3.699989 0.000000 -0.000322
										CHANNELS 6 Xposition Yposition Zposition Xrotation Yrotation Zrotation
										JOINT mixamorig:LeftHandIndex3
										{
											OFFSET 2.850006 0.000000 0.000352
											CHANNELS 6 Xposition Yposition Zposition Xrotation Yrotation Zrotation
											JOINT mixamorig:LeftHandIndex4
											{
												OFFSET 2.774864 -0.000031 -0.000027
												CHANNELS 6 Xposition Yposition Zposition Xrotation Yrotation Zrotation
												End Site
												{
													OFFSET 277.486267 0.000000 -0.009857
												}
											}
										}
									}
								}
								JOINT mixamorig:LeftHandMiddle1
								{
									OFFSET 9.533394 0.000061 0.000044
									CHANNELS 6 Xposition Yposition Zposition Xrotation Yrotation Zrotation
									JOINT mixamorig:LeftHandMiddle2
									{
										OFFSET 3.699989 -0.000015 -0.000231
										CHANNELS 6 Xposition Yposition Zposition Xrotation Yrotation Zrotation
										JOINT mixamorig:LeftHandMiddle3
										{
											OFFSET 2.949997 -0.000015 -0.000059
											CHANNELS 6 Xposition Yposition Zposition Xrotation Yrotation Zrotation
											JOINT mixamorig:LeftHandMiddle4
											{
												OFFSET 2.952896 0.000031 0.000063
												CHANNELS 6 Xposition Yposition Zposition Xrotation Yrotation Zrotation
												End Site
												{
													OFFSET 295.289337 0.000000 0.022810
												}
											}
										}
									}
								}
								JOINT mixamorig:LeftHandRing1
								{
									OFFSET 9.104523 -0.042999 -1.865074
									CHANNELS 6 Xposition Yposition Zposition Xrotation Yrotation Zrotation
									JOINT mixamorig:LeftHandRing2
									{
										OFFSET 3.150009 -0.000031 0.000043
										CHANNELS 6 Xposition Yposition Zposition Xrotation Yrotation Zrotation
										JOINT mixamorig:LeftHandRing3
										{
											OFFSET 2.949982 -0.000015 0.000040
											CHANNELS 6 Xposition Yposition Zposition Xrotation Yrotation Zrotation
											JOINT mixamorig:LeftHandRing4
											{
												OFFSET 2.644348 0.000000 0.000057
												CHANNELS 6 Xposition Yposition Zposition Xrotation Yrotation Zrotation
												End Site
												{
													OFFSET 264.434631 0.000000 0.012105
												}
											}
										}
									}
								}
								JOINT mixamorig:LeftHandPinky1
								{
									OFFSET 8.077789 -0.486847 -3.806259
									CHANNELS 6 Xposition Yposition Zposition Xrotation Yrotation Zrotation
									JOINT mixamorig:LeftHandPinky2
									{
										OFFSET 3.599953 0.000031 0.014727
										CHANNELS 6 Xposition Yposition Zposition Xrotation Yrotation Zrotation
										JOINT mixamorig:LeftHandPinky3
										{
											OFFSET 2.100021 0.000015 0.007705
											CHANNELS 6 Xposition Yposition Zposition Xrotation Yrotation Zrotation
											JOINT mixamorig:LeftHandPinky4
											{
												OFFSET 2.125504 0.000031 0.007517
												CHANNELS 6 Xposition Yposition Zposition Xrotation Yrotation Zrotation
												End Site
												{
													OFFSET 212.550781 0.000000 0.625752
												}
											}
										}
									}
								}
							}
						}
					}
				}
			}
		}
	}
	JOINT mixamorig:RightUpLeg
	{
		OFFSET -8.207787 -6.751648 -1.599560
		CHANNELS 6 Xposition Yposition Zposition Xrotation Yrotation Zrotation
		JOINT mixamorig:RightLeg
		{
			OFFSET -0.000002 -44.370117 0.345942
			CHANNELS 6 Xposition Yposition Zposition Xrotation Yrotation Zrotation
			JOINT mixamorig:RightFoot
			{
				OFFSET 0.000003 -44.423679 -3.043532
				CHANNELS 6 Xposition Yposition Zposition Xrotation Yrotation Zrotation
				JOINT mixamorig:RightToeBase
				{
					OFFSET -0.000002 -8.728671 10.710558
					CHANNELS 6 Xposition Yposition Zposition Xrotation Yrotation Zrotation
					JOINT mixamorig:RightToe_End
					{
						OFFSET -0.000001 -0.000679 9.278119
						CHANNELS 6 Xposition Yposition Zposition Xrotation Yrotation Zrotation
						End Site
						{
							OFFSET 0.000000 -0.067690 927.812134
						}
					}
				}
			}
		}
	}
	JOINT mixamorig:LeftUpLeg
	{
		OFFSET 8.207793 -6.751686 -1.599556
		CHANNELS 6 Xposition Yposition Zposition Xrotation Yrotation Zrotation
		JOINT mixamorig:LeftLeg
		{
			OFFSET -0.000004 -44.370014 0.346954
			CHANNELS 6 Xposition Yposition Zposition Xrotation Yrotation Zrotation
			JOINT mixamorig:LeftFoot
			{
				OFFSET -0.000001 -44.423672 -3.044401
				CHANNELS 6 Xposition Yposition Zposition Xrotation Yrotation Zrotation
				JOINT mixamorig:LeftToeBase
				{
					OFFSET -0.000002 -8.728669 10.710558
					CHANNELS 6 Xposition Yposition Zposition Xrotation Yrotation Zrotation
					JOINT mixamorig:LeftToe_End
					{
						OFFSET -0.000003 -0.000679 9.278133
						CHANNELS 6 Xposition Yposition Zposition Xrotation Yrotation Zrotation
						End Site
						{
							OFFSET 0.000000 -0.068021 927.813477
						}
					}
				}
			}
		}
	}
}
MOTION
Frames: 3
Frame Time: 0.033333
0.000006 104.270477 1.554256 0.000010 0.000003 -0.000113 -0.000005 10.181587 0.131522 0.000001 -0.000003 0.000084 -0.000000 9.893967 -1.470711 0.000001 0.000000 -0.000000 -0.000000 9.220802 -1.370642 0.000000 -0.000000 -0.000000 0.000001 16.740433 -2.049030 0.000000 -0.000000 -0.000000 0.000000 9.617859 1.685014 0.000000 0.000000 0.000000 0.000002 22.037384 7.501101 0.000000 -0.000000 0.000000 -4.569968 11.014880 -2.160881 0.000008 0.000001 -0.000038 -10.592870 -0.524778 -2.231901 69.635049 33.483186 -23.631982 -27.841532 0.000007 0.000556 120.815596 62.738368 -94.062660 -28.328831 0.000019 0.000023 -0.000320 -0.000044 0.000008 -2.464462 -1.573711 2.682311 -51.884572 -175.476357 -22.564257 -3.215292 -1.872627 1.924671 156.207096 30.489418 -3.741608 -2.654941 -1.527884 1.513074 147.075488 26.688836 -39.401551 -2.018830 -1.151985 1.108069 -0.000001 -0.000005 0.000000 -9.108387 -0.517552 2.260110 95.343410 16.414282 -18.047175 -3.700075 0.000318 0.001510 93.795375 13.438504 -14.325097 -2.850076 0.000367 -0.000281 92.089603 10.438860 -10.823475 -2.772163 -0.000016 -0.000016 0.000001 -0.000000 -0.000000 -9.532607 0.000271 0.000215 87.467587 15.733716 -15.197253 -3.700059 0.000333 0.003948 88.561209 11.809665 -11.426698 -2.950055 0.000320 -0.001825 91.075054 10.965949 -11.165176 -2.946623 0.000003 -0.000157 0.000002 0.000000 -0.000001 -9.103703 -0.042757 -1.864894 83.933913 17.023659 -15.291545 -3.379326 0.000323 -0.000837 86.705727 8.973521 -8.489993 -2.889724 0.000350 0.000593 93.714724 5.581624 -6.002777 -2.638821 -0.000016 0.000942 -0.000001 -0.000001 0.000002 -8.076759 -0.486404 -3.806071 77.389342 15.924969 -12.664514 -3.600026 0.000274 -0.003566 79.915788 7.186933 -5.730460 -2.100014 0.000315 -0.005525 84.297081 4.027499 -3.451558 -2.115758 -0.000039 -0.003680 0.000004 -0.000003 -0.000004 4.570446 11.014691 -2.160851 -0.000018 0.000010 -0.000021 10.592522 -0.524541 -2.232382 60.388824 -66.063311 41.447053 27.841713 -0.000082 -0.000088 240.913968 -70.946452 259.059568 28.328831 -0.000029 0.000024 0.000019 -0.000088 0.000000 2.466089 -1.576191 2.681881 64.159915 109.606190 -110.209344 3.217820 -1.872005 1.916537 291.874856 37.886854 384.641994 2.656069 -1.528750 1.514629 287.160988 20.848270 384.281770 2.020890 -1.154074 1.115142 0.000002 0.000003 0.000006 9.109133 -0.517803 2.260072 43.816049 -153.522203 119.349510 3.700125 0.000132 -0.000343 145.274326 -23.876193 68.185819 2.850068 0.000283 0.000242 299.545842 -169.186586 198.451010 2.774891 -0.000043 -0.000019 -0.000002 -0.000002 -0.000002 9.533179 0.000322 0.000229 208.180805 -19.448057 291.360844 3.700107 0.000237 -0.000287 131.885516 -16.875999 36.756421 2.950023 0.000252 -0.000213 104.378903 -4.159265 5.361898 2.952879 -0.000015 0.000061 -0.000000 0.000001 0.000001 9.104286 -0.042791 -1.864933 198.827913 -17.320755 274.854462 3.150028 0.000285 -0.000085 118.031939 -6.812490 11.324307 2.949979 0.000230 -0.000133 91.142133 5.354470 -5.460769 2.644313 0.000028 0.000053 -0.000002 0.000003 -0.000001 8.077544 -0.486574 -3.806128 195.125691 -10.102984 291.938350 3.599930 0.000406 0.014630 134.942039 3.435710 -7.335767 2.099930 0.000297 0.007519 283.206773 167.980416 -194.743843 2.125521 -0.000014 0.007517 -0.000000 -0.000002 -0.000004 -8.207786 -6.751667 -1.599560 -0.077001 -0.000003 0.000080 -0.000002 -44.370110 0.345938 0.153719 -0.000000 -0.000000 0.000000 -44.423679 -3.043532 -0.076700 0.000000 -0.000002 -0.000006 -8.728667 10.710559 -0.000009 -0.000000 -0.000000 -0.000001 -0.000679 9.278123 0.000000 -0.000000 -0.000000 8.207792 -6.751710 -1.599556 -0.074518 -0.000003 0.000081 -0.000002 -44.370014 0.346960 0.148822 0.000002 0.000000 -0.000001 -44.423664 -3.044403 -0.074314 0.000000 -0.000002 -0.000004 -8.728671 10.710558 0.000007 -0.000000 -0.000000 0.000000 -0.000680 9.278137 -0.000000 0.000000 -0.000001 
0.000006 104.270477 1.554256 0.000010 0.000003 -0.000113 -0.000005 10.181587 0.131522 0.000001 -0.000003 0.000084 -0.000000 9.893967 -1.470711 0.000001 0.000000 -0.000000 -0.000000 9.220802 -1.370642 0.000000 -0.000000 -0.000000 0.000001 16.740433 -2.049030 0.000000 -0.000000 -0.000000 0.000000 9.617859 1.685014 0.000000 0.000000 0.000000 0.000002 22.037384 7.501101 0.000000 -0.000000 0.000000 -4.569968 11.014880 -2.160881 0.000008 0.000001 -0.000038 -10.592875 -0.524778 -2.231895 69.454254 33.346630 -23.455846 -27.841543 -0.000000 0.000547 120.714810 64.345921 -95.734889 -28.328842 0.000023 0.000023 -0.000322 -0.000044 0.000006 -2.464448 -1.573704 2.682316 -51.509325 -174.543094 -21.084200 -3.215281 -1.872605 1.924676 156.002245 30.575253 -3.163447 -2.654948 -1.527899 1.513087 147.199388 26.692753 -39.086079 -2.018831 -1.151986 1.108061 -0.000002 -0.000006 0.000004 -9.108382 -0.517551 2.260106 94.683654 16.354280 -17.778202 -3.700081 0.000325 0.001491 93.451065 13.248378 -14.038458 -2.850095 0.000366 -0.000281 91.961121 10.332658 -10.689516 -2.772163 -0.000001 -0.000020 0.000001 -0.000000 -0.000000 -9.532595 0.000259 0.000220 87.454869 16.092165 -15.537825 -3.700069 0.000324 0.003940 88.435725 12.018044 -11.604507 -2.950060 0.000343 -0.001814 91.263553 11.138564 -11.378122 -2.946617 -0.000015 -0.000156 -0.000002 -0.000000 0.000000 -9.103708 -0.042750 -1.864910 84.102216 17.449737 -15.722023 -3.379314 0.000323 -0.000838 86.632931 9.214291 -8.706467 -2.889734 0.000360 0.000612 93.776721 5.751876 -6.191188 -2.638803 -0.000004 0.000940 -0.000005 0.000002 0.000000 -8.076758 -0.486391 -3.806069 77.616057 16.237344 -12.968131 -3.600030 0.000278 -0.003557 80.028705 7.488838 -5.994439 -2.100008 0.000320 -0.005521 84.280867 4.393510 -3.780764 -2.115773 -0.000028 -0.003681 -0.000003 0.000003 -0.000005 4.570446 11.014691 -2.160851 -0.000018 0.000010 -0.000021 10.592519 -0.524541 -2.232375 59.682500 -67.661643 42.061640 27.841726 -0.000069 -0.000087 240.169313 -71.988432 257.147442 28.328831 -0.000013 0.000031 0.000020 -0.000089 0.000000 2.466091 -1.576187 2.681861 66.167560 109.188292 -111.813953 3.217852 -1.872008 1.916510 291.118864 38.515771 385.177754 2.656055 -1.528739 1.514630 284.835882 22.029769 385.596444 2.020891 -1.154084 1.115144 -0.000003 0.000005 0.000002 9.109134 -0.517767 2.260067 43.075869 -154.985434 121.329322 3.700111 0.000126 -0.000333 148.666253 -24.269990 75.008195 2.850063 0.000301 0.000266 301.863707 -168.213995 201.036127 2.774899 -0.000028 -0.000005 -0.000001 0.000001 -0.000002 9.533197 0.000339 0.000217 208.897716 -17.709340 297.692128 3.700104 0.000235 -0.000273 135.828338 -17.615046 41.791656 2.950044 0.000255 -0.000190 107.259597 -5.730912 7.779891 2.952859 -0.000031 0.000062 0.000000 -0.000000 -0.000000 9.104302 -0.042765 -1.864949 199.062435 -16.042265 279.987185 3.150073 0.000298 -0.000078 120.450085 -7.643432 13.322311 2.949951 0.000244 -0.000114 92.192521 4.093201 -4.251344 2.644319 0.000030 0.000054 -0.000001 -0.000002 -0.000000 8.077553 -0.486539 -3.806137 194.993554 -9.985725 292.075992 3.599950 0.000388 0.014618 132.341732 3.188068 -6.322853 2.099959 0.000305 0.007527 280.609634 168.711915 -193.197433 2.125501 -0.000030 0.007519 -0.000000 0.000001 0.000001 -8.207786 -6.751667 -1.599560 -0.077001 -0.000003 0.000080 -0.000002 -44.370110 0.345938 0.153719 -0.000000 -0.000000 0.000000 -44.423679 -3.043532 -0.076700 0.000000 -0.000002 -0.000006 -8.728667 10.710559 -0.000009 -0.000000 -0.000000 -0.000001 -0.000679 9.278123 0.000000 -0.000000 -0.000000 8.207792 -6.751710 -1.599556 -0.074518 -0.000003 0.000081 -0.000002 -44.370014 0.346960 0.148822 0.000002 0.000000 -0.000001 -44.423664 -3.044403 -0.074314 0.000000 -0.000002 -0.000004 -8.728671 10.710558 0.000007 -0.000000 -0.000000 0.000000 -0.000680 9.278137 -0.000000 0.000000 -0.000001 
0.000006 104.270477 1.554256 0.000010 0.000003 -0.000113 -0.000005 10.181587 0.131522 0.000001 -0.000003 0.000084 -0.000000 9.893967 -1.470711 0.000001 0.000000 -0.000000 -0.000000 9.220802 -1.370642 0.000000 -0.000000 -0.000000 0.000001 16.740433 -2.049030 0.000000 -0.000000 -0.000000 0.000000 9.617859 1.685014 0.000000 0.000000 0.000000 0.000002 22.037384 7.501101 0.000000 -0.000000 0.000000 -4.569968 11.014880 -2.160881 0.000008 0.000001 -0.000038 -10.592869 -0.524786 -2.231878 69.517051 37.143655 -26.249068 -27.841536 0.000018 0.000556 120.459484 66.933668 -98.260112 -28.328825 -0.000005 0.000025 -0.000318 -0.000045 0.000008 -2.464452 -1.573737 2.682325 -50.516475 -172.885571 -17.581417 -3.215264 -1.872599 1.924669 156.292309 30.443697 -4.036043 -2.654956 -1.527911 1.513081 147.188377 26.647688 -39.569133 -2.018819 -1.151988 1.108062 0.000000 -0.000006 0.000002 -9.108386 -0.517561 2.260102 94.414928 16.609394 -17.970820 -3.700068 0.000323 0.001487 93.553361 13.251892 -14.067061 -2.850082 0.000365 -0.000275 92.342880 10.375103 -10.804798 -2.772161 -0.000017 -0.000020 0.000001 0.000000 -0.000001 -9.532593 0.000257 0.000201 87.506478 16.919924 -16.346637 -3.700078 0.000328 0.003956 88.808824 12.548453 -12.199006 -2.950065 0.000344 -0.001810 91.696963 11.372917 -11.705203 -2.946631 0.000001 -0.000156 -0.000000 -0.000000 -0.000000 -9.103707 -0.042765 -1.864907 83.979607 18.247547 -16.409745 -3.379316 0.000324 -0.000840 86.157953 9.680065 -9.070736 -2.889754 0.000374 0.000606 93.442172 5.913226 -6.326552 -2.638808 -0.000003 0.000941 -0.000001 0.000001 -0.000001 -8.076756 -0.486402 -3.806058 77.196348 16.899295 -13.403495 -3.600034 0.000268 -0.003563 79.531454 8.095064 -6.444558 -2.100019 0.000319 -0.005520 83.983733 4.708476 -4.043796 -2.115759 -0.000045 -0.003681 0.000002 -0.000000 -0.000004 4.570446 11.014691 -2.160851 -0.000018 0.000010 -0.000021 10.592519 -0.524560 -2.232373 59.352848 -68.687190 42.547748 27.841728 -0.000071 -0.000090 239.850835 -72.480704 256.286483 28.328831 -0.000027 0.000025 0.000022 -0.000088 0.000001 2.466089 -1.576191 2.681843 68.719039 107.244728 -113.156673 3.217807 -1.872002 1.916519 294.508960 39.831351 383.438105 2.656066 -1.528759 1.514629 285.455653 24.463974 385.868477 2.020895 -1.154054 1.115152 0.000001 0.000003 0.000004 9.109171 -0.517763 2.260071 43.907372 -156.831115 126.096439 3.700132 0.000096 -0.000319 152.955229 -23.919083 82.807588 2.850092 0.000294 0.000247 305.236346 -168.685756 201.651609 2.774867 -0.000016 -0.000028 0.000001 -0.000003 -0.000001 9.533210 0.000338 0.000212 209.238774 -17.165314 299.899017 3.700129 0.000206 -0.000278 136.462521 -18.800517 45.027759 2.950034 0.000262 -0.000199 107.712056 -5.635545 7.714074 2.952865 -0.000015 0.000051 -0.000000 0.000000 0.000000 9.104277 -0.042780 -1.864951 197.281545 -16.116963 274.050713 3.150038 0.000298 -0.000073 117.898887 -8.359538 13.844711 2.949942 0.000245 -0.000132 90.839822 4.537238 -4.602799 2.644296 0.000014 0.000056 0.000003 -0.000002 0.000003 8.077568 -0.486549 -3.806139 195.640769 -9.710787 295.653918 3.599914 0.000391 0.014594 129.268106 4.168781 -7.971615 2.099942 0.000289 0.007498 277.748577 167.403784 -194.057122 2.125510 -0.000016 0.007509 0.000001 -0.000001 0.000000 -8.207786 -6.751667 -1.599560 -0.077001 -0.000003 0.000080 -0.000002 -44.370110 0.345938 0.153719 -0.000000 -0.000000 0.000000 -44.423679 -3.043532 -0.076700 0.000000 -0.000002 -0.000006 -8.728667 10.710559 -0.000009 -0.000000 -0.000000 -0.000001 -0.000679 9.278123 0.000000 -0.000000 -0.000000 8.207792 -6.751710 -1.599556 -0.074518 -0.000003 0.000081 -0.000002 -44.370014 0.346960 0.148822 0.000002 0.000000 -0.000001 -44.423664 -3.044403 -0.074314 0.000000 -0.000002 -0.000004 -8.728671 10.710558 0.000007 -0.000000 -0.000000 0.000000 -0.000680 9.278137 -0.000000 0.000000 -0.000001 
